<svg width="40" height="40" viewBox="0 0 40 40" fill="none" xmlns="http://www.w3.org/2000/svg">
<path d="M32.152 6.49535C32.9172 6.82314 34.2284 8.79041 33.9369 10.94C32.4434 12.1421 30.658 12.98 28.9458 13.2351V26.9328H34.046C34.046 29.0455 33.7182 30.7213 33.3541 31.3411H24.0284V13.4533H17.5437V24.1276C17.5437 29.5192 14.5198 32.1421 10.6585 32.1421C9.5655 32.1421 8.29069 31.9961 7.16134 31.6683C6.65121 30.9764 6.39615 28.8995 6.32342 26.313C8.87355 27.5515 12.3707 28.1343 12.6621 24.127V14.1457C8.76394 14.5463 7.34316 17.2787 5.99511 19.1005C6.03147 16.6595 6.14108 14.4377 6.28654 12.9437C8.94576 10.0657 11.9333 8.71769 17.8351 8.71769H26.2507C28.2907 8.75405 30.2943 7.98886 32.152 6.49535ZM20.1665 2.59717C12.5889 2.59717 9.52862 3.07093 9.52862 3.07093C6.28654 3.21639 3.99147 5.43873 3.66368 9.2273C3.66368 9.2273 3.11719 14.1816 3.11719 19.9379C3.11719 25.6943 3.66368 30.6486 3.66368 30.6486C3.99147 34.4372 6.28654 36.6959 9.52914 36.8055C9.52914 36.8055 12.5894 37.2792 20.1671 37.2792C27.7447 37.2792 30.805 36.8055 30.805 36.8055C34.0471 36.6595 36.3426 34.4377 36.6704 30.6486C36.6704 30.6486 37.2169 25.8761 37.2169 19.9379C37.2169 14.2185 36.6704 9.2273 36.6704 9.2273C36.3426 5.43873 34.0476 3.18003 30.805 3.07041C30.8045 3.03405 27.7442 2.59717 20.1665 2.59717Z" fill="#37B34A"/>
</svg>
